<?xml version="1.0" encoding="utf-8"?>
<!-- Generator: Adobe Illustrator 24.0.1, SVG Export Plug-In . SVG Version: 6.00 Build 0)  -->
<svg version="1.1" id="Layer_1" xmlns="http://www.w3.org/2000/svg" xmlns:xlink="http://www.w3.org/1999/xlink" x="0px" y="0px"
	 viewBox="0 0 500 500" style="enable-background:new 0 0 500 500;" xml:space="preserve">
<g>
	<path d="M231.47,7.68c7.94-2.39,16.34-2.4,24.53-1.61c19.61,0.52,38.45,9.94,51.81,24.11c13.07,13.19,20.56,31.36,21.75,49.79
		c0.01,2.35,0.08,4.76-0.67,7.02c-2.14,7.06-5.33,13.74-8.72,20.27c-6.49,13.66-14.73,26.37-22.86,39.09
		c-11.01,16.48-22.57,32.61-34.84,48.17c-3.91,4.52-6.86,9.9-11.47,13.79c-1.5-1.61-2.95-3.27-4.26-5.03
		c-6.64-8.99-14.11-17.33-20.58-26.45c-17.04-23.88-33-48.68-45.74-75.15c-3.07-7.57-7.49-15.22-6.77-23.68
		c1.2-15.87,7.43-31.46,17.79-43.55c5.58-5.79,11.1-11.74,17.85-16.2C215.8,13.14,223.63,10.1,231.47,7.68z"/>
	<path d="M498.43,254.68c-1.48,23.23,0,15.84-2.64,40.4c-0.01,0.06-0.02,0.12-0.02,0.18c-4.09,30.48-23.28,75.31-47.24,106.29
		c-6,8.22-13.09,15.54-19.75,23.22c-23.3,23.07-50.57,42.38-80.86,55.14c-1.91,0.68-5.11,1.88-6.16-0.61
		c-4.01-7.14-6.29-15.11-8.23-23.02c-2.39-9.34,0.11-18.87,1.44-28.16c1.3-7.44,1.77-15.02,3.63-22.35
		c1.36-5.66,2.4-11.6,5.75-16.49c2.53-4.12,6.93-6.44,10.89-8.93c8.6-5.14,16-12.02,23.1-19.03c9.35-10.99,17.35-23.05,24.58-35.52
		c5.74-11.02,11.87-21.89,16.31-33.53c7.9-19.97,14.96-40.69,16.44-62.26c-0.22-7.36,1.09-14.63,1.06-21.98
		c-0.3-10.22,2.03-20.41,0.73-30.61c-1.14-4.39-3.51-8.4-6.45-11.82c-4.05-0.29-8.77-0.67-11.87,2.52
		c-8.55,9.36-14.91,20.4-22.56,30.47c-4.24,6.99-9.63,13.18-13.93,20.13c-2.81,4.4-6.28,8.33-9.13,12.7
		c-4.58,7.62-10.59,14.23-15.52,21.62c-3.48,4.16-6.66,8.62-8.31,13.85c-9.92,23.63-27.32,42.98-39.5,65.37
		c-2.39,4.26-3.85,9.12-7.01,12.9c-3.38,2.87-7.73,4.22-11.52,6.45c-4.92,2.53-9.46,5.88-14.68,7.78
		c-3.56,0.27-7.08-0.72-10.48-1.66c-4.6-1.25-7.11-5.66-10.7-8.42c-3.83-3.02-7.71-6.07-12.04-8.34c-2.41-1.37-4.57,1.16-6.48,2.32
		c-4.16,3.48-9.42,5.1-13.92,8.02c-3.04,1.8-5.93,4.04-9.41,4.93c-5.8,1.26-11.78,1.66-17.69,1.2c-1.47-0.14-2.04-1.79-2.78-2.83
		c-2.33-4.31-4.62-8.65-7.33-12.73c-10.84-16.62-18.9-34.83-29.31-51.69c-6.29-9.11-11.35-19-15.82-29.1
		c-2.04-4.47-4.8-8.58-6.72-13.11c-3.25-7.58-6.96-14.96-11.24-22c-9.11-13.6-17.99-27.36-27.01-41.02
		c-2.61-3.98-4.96-8.29-8.57-11.47c-1.75-1.2-4.05-2.47-6.19-1.54c-3.88,1.5-7.9,3.54-10.18,7.19c-3.19,5.11-5.4,10.81-6.54,16.72
		c-2.03,10.27-4.34,20.61-4.06,31.14c0.09,5.67-0.16,11.34,0.15,17c2.12,21.17,8.04,41.78,15.52,61.63
		c4.84,12.24,9.52,24.61,16.1,36.06c4.75,7.79,9.03,15.99,15.39,22.66c6.25,7.53,15.31,12.02,21.65,19.44
		c3.53,3.93,4.68,9.27,5.97,14.24c0.98,4.74,2.58,9.35,3.29,14.14c0.57,3.34-2.89,5.3-4.36,7.89c-4.58,6.99-10.39,13.03-15.34,19.74
		c-2.25,2.85-5.58,4.52-8.57,6.46c-2.72,1.57-5.23,3.6-8.23,4.61c-5.72-2.94-10.35-7.59-15.33-11.61
		c-17.84-15.24-33.38-33.11-46.4-52.62c-11.88-18.15-21.99-37.59-28.67-58.28c-5.4-16.25-9.93-33.37-10.49-54.93L0.8,243.24
		c0.19-22.87,2.45-39.26,4.54-48.27c2.94-12.57,6.36-25.1,11.6-36.93c3.79-9.08,7.58-18.17,12.39-26.76
		C40.7,111.39,53.67,92.2,70.01,76.02c12.1-12.66,25.35-24.23,39.74-34.21c1.83-1.23,3.88-2.08,5.93-2.84
		c-0.97,6.33-3.21,12.39-4.3,18.7c-1.92,10.48-3.54,21.18-2.49,31.85c2.72,17.03,8.95,33.34,17.07,48.5
		c4.26,9.13,9.49,17.74,14.58,26.43c12.27,20.04,25.6,39.43,39.84,58.12c10.79,13.33,20.21,27.71,31.14,40.93
		c12.56,15.54,25.01,31.22,38.65,45.83c4.88-3.47,8.22-8.55,12.27-12.87c11.16-12.24,21.37-25.3,32.04-37.96
		c25.27-31.87,50.26-64.15,70.97-99.23c11.42-19.12,22.13-39.11,27.24-60.95c2.94-11.49,1.86-23.49,0.38-35.11
		c-0.86-6.85-2.97-13.46-3.88-20.29c13.01,7.43,23.95,17.9,35.06,27.83c27.51,27.32,49.47,60.62,61.71,97.52
		c4.95,13.51,8.5,27.58,10.23,41.87c0.59,4.26,1.3,10.6,1.86,17.91"/>
</g>
</svg>
